<?xml version="1.0" encoding="UTF-8" standalone="no"?>
<!DOCTYPE svg PUBLIC "-//W3C//DTD SVG 1.1//EN"
 "http://www.w3.org/Graphics/SVG/1.1/DTD/svg11.dtd">
<!-- Generated by graphviz version 2.49.3 (20211023.0002)
 -->
<!-- Title: G Pages: 1 -->
<svg width="1303pt" height="314pt"
 viewBox="0.00 0.00 1303.00 314.00" xmlns="http://www.w3.org/2000/svg" xmlns:xlink="http://www.w3.org/1999/xlink">
<g id="graph0" class="graph" transform="scale(1 1) rotate(0) translate(4 310)">
<title>G</title>
<polygon fill="white" stroke="transparent" points="-4,4 -4,-310 1299,-310 1299,4 -4,4"/>
<!-- s -->
<g id="node1" class="node">
<title>s</title>
<ellipse fill="black" stroke="black" cx="311" cy="-18" rx="18" ry="18"/>
<text text-anchor="middle" x="311" y="-14.3" font-family="Arial" font-size="14.00">s</text>
</g>
<!-- StateInitial -->
<g id="node2" class="node">
<title>StateInitial</title>
<polygon fill="#ffbb33" stroke="red" points="741,-36 659,-36 659,0 741,0 741,-36"/>
<text text-anchor="middle" x="700" y="-14.3" font-family="Arial" font-size="14.00">StateInitial</text>
</g>
<!-- s&#45;&gt;StateInitial -->
<g id="edge1" class="edge">
<title>s&#45;&gt;StateInitial</title>
<path fill="none" stroke="black" d="M329.13,-18C384.65,-18 561.13,-18 648.71,-18"/>
<polygon fill="black" stroke="black" points="648.94,-21.5 658.94,-18 648.94,-14.5 648.94,-21.5"/>
</g>
<!-- StateDetermineStabilization -->
<g id="node3" class="node">
<title>StateDetermineStabilization</title>
<polygon fill="#ffbb33" stroke="red" points="977,-36 786,-36 786,0 977,0 977,-36"/>
<text text-anchor="middle" x="881.5" y="-14.3" font-family="Arial" font-size="14.00">StateDetermineStabilization</text>
</g>
<!-- StateInitial&#45;&gt;StateDetermineStabilization -->
<g id="edge2" class="edge">
<title>StateInitial&#45;&gt;StateDetermineStabilization</title>
<path fill="none" stroke="blue" d="M741.28,-18C751.7,-18 763.41,-18 775.5,-18"/>
<polygon fill="blue" stroke="blue" points="775.73,-21.5 785.73,-18 775.73,-14.5 775.73,-21.5"/>
<text text-anchor="middle" x="763.5" y="-21.8" font-family="Arial" font-size="14.00">1</text>
</g>
<!-- StateOnWheels -->
<g id="node4" class="node">
<title>StateOnWheels</title>
<polygon fill="#ffbb33" stroke="red" points="1139,-71 1022,-71 1022,-35 1139,-35 1139,-71"/>
<text text-anchor="middle" x="1080.5" y="-49.3" font-family="Arial" font-size="14.00">StateOnWheels</text>
</g>
<!-- StateDetermineStabilization&#45;&gt;StateOnWheels -->
<g id="edge5" class="edge">
<title>StateDetermineStabilization&#45;&gt;StateOnWheels</title>
<path fill="none" stroke="blue" d="M977.25,-34.83C988.95,-36.91 1000.71,-39 1011.89,-40.99"/>
<polygon fill="blue" stroke="blue" points="1011.51,-44.48 1021.97,-42.78 1012.74,-37.58 1011.51,-44.48"/>
<text text-anchor="middle" x="999.5" y="-41.8" font-family="Arial" font-size="14.00">4</text>
</g>
<!-- StateStabilized -->
<g id="node5" class="node">
<title>StateStabilized</title>
<polygon fill="#ffbb33" stroke="red" points="1295,-53 1184,-53 1184,-17 1295,-17 1295,-53"/>
<text text-anchor="middle" x="1239.5" y="-31.3" font-family="Arial" font-size="14.00">StateStabilized</text>
</g>
<!-- StateDetermineStabilization&#45;&gt;StateStabilized -->
<g id="edge4" class="edge">
<title>StateDetermineStabilization&#45;&gt;StateStabilized</title>
<path fill="none" stroke="blue" d="M977.21,-8.87C1025.74,-5.84 1085.7,-4.66 1139,-11 1150.4,-12.35 1162.37,-14.55 1173.92,-17.08"/>
<polygon fill="blue" stroke="blue" points="1173.39,-20.55 1183.92,-19.38 1174.96,-13.73 1173.39,-20.55"/>
<text text-anchor="middle" x="1080.5" y="-14.8" font-family="Arial" font-size="14.00">3</text>
</g>
<!-- StateOnWheels&#45;&gt;StateStabilized -->
<g id="edge6" class="edge">
<title>StateOnWheels&#45;&gt;StateStabilized</title>
<path fill="none" stroke="blue" d="M1139.33,-53.12C1148.28,-52.71 1157.4,-52.04 1166,-51 1168.52,-50.7 1171.08,-50.34 1173.66,-49.95"/>
<polygon fill="blue" stroke="blue" points="1174.39,-53.38 1183.67,-48.27 1173.23,-46.48 1174.39,-53.38"/>
<text text-anchor="middle" x="1161.5" y="-54.8" font-family="Arial" font-size="14.00">5</text>
</g>
<!-- StateStabilized&#45;&gt;StateOnWheels -->
<g id="edge3" class="edge">
<title>StateStabilized&#45;&gt;StateOnWheels</title>
<path fill="none" stroke="blue" d="M1183.6,-34.1C1174.69,-34.41 1165.57,-34.99 1157,-36 1154.49,-36.29 1151.94,-36.64 1149.37,-37.02"/>
<polygon fill="blue" stroke="blue" points="1148.7,-33.58 1139.41,-38.68 1149.85,-40.49 1148.7,-33.58"/>
<text text-anchor="middle" x="1161.5" y="-39.8" font-family="Arial" font-size="14.00">2</text>
</g>
<!-- 5 -->
<g id="node6" class="node">
<title>5</title>
<polygon fill="none" stroke="black" points="589,-90 33,-90 33,-54 589,-54 589,-90"/>
<text text-anchor="middle" x="311" y="-68.3" font-family="Arial" font-size="14.00">5: StateOnWheels + EvStabilizev / ctx . action_extend_stabilizers () ; = StateStabilized</text>
</g>
<!-- 4 -->
<g id="node7" class="node">
<title>4</title>
<polygon fill="none" stroke="black" points="579,-144 43,-144 43,-108 579,-108 579,-144"/>
<text text-anchor="middle" x="311" y="-122.3" font-family="Arial" font-size="14.00">4: StateDetermineStabilization + EvDefault[! ctx . is_stabilized ()] = StateOnWheels</text>
</g>
<!-- 3 -->
<g id="node8" class="node">
<title>3</title>
<polygon fill="none" stroke="black" points="571.5,-198 50.5,-198 50.5,-162 571.5,-162 571.5,-198"/>
<text text-anchor="middle" x="311" y="-176.3" font-family="Arial" font-size="14.00">3: StateDetermineStabilization + EvDefault[ctx . is_stabilized ()] = StateStabilized</text>
</g>
<!-- 2 -->
<g id="node9" class="node">
<title>2</title>
<polygon fill="none" stroke="black" points="622,-252 0,-252 0,-216 622,-216 622,-252"/>
<text text-anchor="middle" x="311" y="-230.3" font-family="Arial" font-size="14.00">2: StateStabilized + EvRemoveStabilization / ctx . action_retract_stabilizers () ; = StateOnWheels</text>
</g>
<!-- 1 -->
<g id="node10" class="node">
<title>1</title>
<polygon fill="none" stroke="black" points="493.5,-306 128.5,-306 128.5,-270 493.5,-270 493.5,-306"/>
<text text-anchor="middle" x="311" y="-284.3" font-family="Arial" font-size="14.00">1: StateInitial + EvDefault = StateDetermineStabilization</text>
</g>
</g>
</svg>
